<?xml version="1.0" encoding="utf-8"?>
<!-- Generator: Adobe Illustrator 16.0.0, SVG Export Plug-In . SVG Version: 6.00 Build 0)  -->
<!DOCTYPE svg PUBLIC "-//W3C//DTD SVG 1.1//EN" "http://www.w3.org/Graphics/SVG/1.1/DTD/svg11.dtd">
<svg version="1.1" id="色轮" xmlns="http://www.w3.org/2000/svg" xmlns:xlink="http://www.w3.org/1999/xlink" x="0px" y="0px"
	 width="179.999px" height="179.999px" viewBox="0 0 179.999 179.999" enable-background="new 0 0 179.999 179.999"
	 xml:space="preserve">
<g id="黑色" display="none">
	<path display="inline" fill="#1B1B1B" d="M90.262,89.762l63.534-63.241C137.554,10.199,115.091,0.075,90.262,0.003V89.762z"/>
	<path display="inline" fill="#2E2E2E" d="M90.27,89.762h89.726c-0.064-24.677-10.059-47.019-26.2-63.241L90.27,89.762z"/>
	<path display="inline" fill="#424242" d="M179.996,89.762H90.27l63.965,63.267c15.933-16.237,25.764-38.483,25.764-63.029
		C179.999,89.92,179.996,89.841,179.996,89.762z"/>
	<path display="inline" fill="#575757" d="M90.262,89.762v90.234c25.056-0.072,47.698-10.384,63.974-26.968L90.262,89.762z"/>
	<path display="inline" fill="#848484" d="M26.521,153.796c16.274,16.193,38.707,26.203,63.478,26.203
		c0.088,0,0.175-0.003,0.263-0.003V89.762L26.521,153.796z"/>
	<path display="inline" fill="#B3B3B3" d="M90.262,89.762H0.003C0.003,89.841,0,89.92,0,89.999
		c0,24.934,10.141,47.497,26.521,63.797L90.262,89.762z"/>
	<path display="inline" fill="#CCCCCC" d="M26.971,25.764C10.381,42.044,0.068,64.697,0.003,89.762h90.259L26.971,25.764z"/>
	<path display="inline" fill="#E5E5E5" d="M90.262,0.003C90.174,0.003,90.087,0,89.999,0C65.454,0,43.208,9.831,26.971,25.764
		l63.291,63.998V0.003z"/>
</g>
<g id="红色" display="none">
	<path display="inline" fill="#D13232" d="M90.262,89.762l63.534-63.241C137.554,10.199,115.091,0.075,90.262,0.003V89.762z"/>
	<path display="inline" fill="#E83737" d="M90.27,89.762h89.726c-0.064-24.677-10.059-47.019-26.2-63.241L90.27,89.762z"/>
	<path display="inline" fill="#EA4B4B" d="M179.996,89.762H90.27l63.965,63.267c15.933-16.237,25.764-38.483,25.764-63.029
		C179.999,89.92,179.996,89.841,179.996,89.762z"/>
	<path display="inline" fill="#ED5F5F" d="M90.262,89.762v90.234c25.056-0.072,47.698-10.384,63.974-26.968L90.262,89.762z"/>
	<path display="inline" fill="#EF7373" d="M26.521,153.796c16.274,16.193,38.707,26.203,63.478,26.203
		c0.088,0,0.175-0.003,0.263-0.003V89.762L26.521,153.796z"/>
	<path display="inline" fill="#F39B9B" d="M90.262,89.762H0.003C0.003,89.841,0,89.92,0,89.999
		c0,24.934,10.141,47.497,26.521,63.797L90.262,89.762z"/>
	<path display="inline" fill="#F6AFAF" d="M26.971,25.764C10.381,42.044,0.068,64.697,0.003,89.762h90.259L26.971,25.764z"/>
	<path display="inline" fill="#F8C3C3" d="M90.262,0.003C90.174,0.003,90.087,0,89.999,0C65.454,0,43.208,9.831,26.971,25.764
		l63.291,63.998V0.003z"/>
</g>
<g id="黄色" display="none">
	<path display="inline" fill="#E6C000" d="M90.262,89.762l63.534-63.241C137.554,10.199,115.091,0.075,90.262,0.003V89.762z"/>
	<path display="inline" fill="#FFD919" d="M90.27,89.762h89.726c-0.064-24.677-10.059-47.019-26.2-63.241L90.27,89.762z"/>
	<path display="inline" fill="#FFDE33" d="M179.996,89.762H90.27l63.965,63.267c15.933-16.237,25.764-38.483,25.764-63.029
		C179.999,89.92,179.996,89.841,179.996,89.762z"/>
	<path display="inline" fill="#FFE24C" d="M90.262,89.762v90.234c25.056-0.072,47.698-10.384,63.974-26.968L90.262,89.762z"/>
	<path display="inline" fill="#FFE97F" d="M26.521,153.796c16.274,16.193,38.707,26.203,63.478,26.203
		c0.088,0,0.175-0.003,0.263-0.003V89.762L26.521,153.796z"/>
	<path display="inline" fill="#FFEF99" d="M90.262,89.762H0.003C0.003,89.841,0,89.92,0,89.999
		c0,24.934,10.141,47.497,26.521,63.797L90.262,89.762z"/>
	<path display="inline" fill="#FFF3B2" d="M26.971,25.764C10.381,42.044,0.068,64.697,0.003,89.762h90.259L26.971,25.764z"/>
	<path display="inline" fill="#FFF7CC" d="M90.262,0.003C90.174,0.003,90.087,0,89.999,0C65.454,0,43.208,9.831,26.971,25.764
		l63.291,63.998V0.003z"/>
</g>
<g id="咖啡色" display="none">
	<path display="inline" fill="#B9A27E" d="M90.262,89.762l63.534-63.241C137.554,10.199,115.091,0.075,90.262,0.003V89.762z"/>
	<path display="inline" fill="#CDB48C" d="M90.27,89.762h89.726c-0.064-24.677-10.059-47.019-26.2-63.241L90.27,89.762z"/>
	<path display="inline" fill="#D2BB97" d="M179.996,89.762H90.27l63.965,63.267c15.933-16.237,25.764-38.483,25.764-63.029
		C179.999,89.92,179.996,89.841,179.996,89.762z"/>
	<path display="inline" fill="#DCCAAE" d="M90.262,89.762v90.234c25.056-0.072,47.698-10.384,63.974-26.968L90.262,89.762z"/>
	<path display="inline" fill="#E6D9C5" d="M26.521,153.796c16.274,16.193,38.707,26.203,63.478,26.203
		c0.088,0,0.175-0.003,0.263-0.003V89.762L26.521,153.796z"/>
	<path display="inline" fill="#EBE1D1" d="M90.262,89.762H0.003C0.003,89.841,0,89.92,0,89.999
		c0,24.934,10.141,47.497,26.521,63.797L90.262,89.762z"/>
	<path display="inline" fill="#F0E8DC" d="M26.971,25.764C10.381,42.044,0.068,64.697,0.003,89.762h90.259L26.971,25.764z"/>
	<path display="inline" fill="#F5F0E8" d="M90.262,0.003C90.174,0.003,90.087,0,89.999,0C65.454,0,43.208,9.831,26.971,25.764
		l63.291,63.998V0.003z"/>
</g>
<g id="蓝色" display="none">
	<path display="inline" fill="#0061A5" d="M90.262,89.762l63.534-63.241C137.554,10.199,115.091,0.075,90.262,0.003V89.762z"/>
	<path display="inline" fill="#006CB7" d="M90.27,89.762h89.726c-0.064-24.677-10.059-47.019-26.2-63.241L90.27,89.762z"/>
	<path display="inline" fill="#197ABE" d="M179.996,89.762H90.27l63.965,63.267c15.933-16.237,25.764-38.483,25.764-63.029
		C179.999,89.92,179.996,89.841,179.996,89.762z"/>
	<path display="inline" fill="#3389C5" d="M90.262,89.762v90.234c25.056-0.072,47.698-10.384,63.974-26.968L90.262,89.762z"/>
	<path display="inline" fill="#4C97CC" d="M26.521,153.796c16.274,16.193,38.707,26.203,63.478,26.203
		c0.088,0,0.175-0.003,0.263-0.003V89.762L26.521,153.796z"/>
	<path display="inline" fill="#66A7D4" d="M90.262,89.762H0.003C0.003,89.841,0,89.92,0,89.999
		c0,24.934,10.141,47.497,26.521,63.797L90.262,89.762z"/>
	<path display="inline" fill="#99C4E2" d="M26.971,25.764C10.381,42.044,0.068,64.697,0.003,89.762h90.259L26.971,25.764z"/>
	<path display="inline" fill="#B2D3E9" d="M90.262,0.003C90.174,0.003,90.087,0,89.999,0C65.454,0,43.208,9.831,26.971,25.764
		l63.291,63.998V0.003z"/>
</g>
<g id="绿色" display="none">
	<path display="inline" fill="#3BAA39" d="M90.262,89.762l63.534-63.241C137.554,10.199,115.091,0.075,90.262,0.003V89.762z"/>
	<path display="inline" fill="#41BC3F" d="M90.27,89.762h89.726c-0.064-24.677-10.059-47.019-26.2-63.241L90.27,89.762z"/>
	<path display="inline" fill="#54C352" d="M179.996,89.762H90.27l63.965,63.267c15.933-16.237,25.764-38.483,25.764-63.029
		C179.999,89.92,179.996,89.841,179.996,89.762z"/>
	<path display="inline" fill="#67C965" d="M90.262,89.762v90.234c25.056-0.072,47.698-10.384,63.974-26.968L90.262,89.762z"/>
	<path display="inline" fill="#7AD078" d="M26.521,153.796c16.274,16.193,38.707,26.203,63.478,26.203
		c0.088,0,0.175-0.003,0.263-0.003V89.762L26.521,153.796z"/>
	<path display="inline" fill="#8DD78C" d="M90.262,89.762H0.003C0.003,89.841,0,89.92,0,89.999
		c0,24.934,10.141,47.497,26.521,63.797L90.262,89.762z"/>
	<path display="inline" fill="#B3E4B2" d="M26.971,25.764C10.381,42.044,0.068,64.697,0.003,89.762h90.259L26.971,25.764z"/>
	<path display="inline" fill="#C6EBC5" d="M90.262,0.003C90.174,0.003,90.087,0,89.999,0C65.454,0,43.208,9.831,26.971,25.764
		l63.291,63.998V0.003z"/>
</g>
<g id="紫色">
	<path fill="#7A57B7" d="M90.262,89.762l63.534-63.241C137.554,10.199,115.091,0.075,90.262,0.003V89.762z"/>
	<path fill="#8761CB" d="M90.27,89.762h89.726c-0.064-24.677-10.059-47.019-26.2-63.241L90.27,89.762z"/>
	<path fill="#9370D0" d="M179.996,89.762H90.27l63.965,63.267c15.933-16.237,25.764-38.483,25.764-63.029
		C179.999,89.92,179.996,89.841,179.996,89.762z"/>
	<path fill="#9F81D5" d="M90.262,89.762v90.234c25.056-0.072,47.698-10.384,63.974-26.968L90.262,89.762z"/>
	<path fill="#AB90DA" d="M26.521,153.796c16.274,16.193,38.707,26.203,63.478,26.203c0.088,0,0.175-0.003,0.263-0.003V89.762
		L26.521,153.796z"/>
	<path fill="#B7A0E0" d="M90.262,89.762H0.003C0.003,89.841,0,89.92,0,89.999c0,24.934,10.141,47.497,26.521,63.797L90.262,89.762z"
		/>
	<path fill="#C3B0E5" d="M26.971,25.764C10.381,42.044,0.068,64.697,0.003,89.762h90.259L26.971,25.764z"/>
	<path fill="#CFC0EA" d="M90.262,0.003C90.174,0.003,90.087,0,89.999,0C65.454,0,43.208,9.831,26.971,25.764l63.291,63.998V0.003z"
		/>
</g>
</svg>
